<svg width="25" height="26" fill="black" viewBox="0 0 25 26" xmlns="http://www.w3.org/2000/svg">
<path d="M12.5 4.79383L11.3801 3.64271C8.74828 0.937604 3.92835 1.8714 2.18806 5.27006C1.36958 6.86848 1.18555 9.17573 2.67858 12.1212C4.11652 14.958 7.10574 18.3538 12.5 22.054C17.8943 18.3538 20.8835 14.958 22.3214 12.1212C23.8145 9.17573 23.6304 6.86848 22.8119 5.27006C21.0716 1.8714 16.2517 0.937604 13.6199 3.64271L12.5 4.79383ZM12.5 23.9375C-11.458 8.10689 5.12306 -4.25136 12.2255 2.28607C12.3187 2.37183 12.4102 2.46084 12.5 2.55313C12.5898 2.46084 12.6813 2.37183 12.7745 2.28608C19.8769 -4.25137 36.458 8.10688 12.5 23.9375Z" />
</svg>
