<svg width="35" height="35" viewBox="0 0 35 35" fill="none" xmlns="http://www.w3.org/2000/svg">
<path d="M6.49843 2.95139C6.91402 2.46654 7.52072 2.1875 8.1593 2.1875H26.8407C27.4793 2.1875 28.086 2.46654 28.5016 2.95139L34.2101 9.6113C34.7198 10.206 35 10.9634 35 11.7467V12.3047C35 15.174 32.674 17.5 29.8047 17.5C28.1375 17.5 26.6538 16.7147 25.7031 15.4939C24.7525 16.7147 23.2687 17.5 21.6016 17.5C19.9344 17.5 18.4506 16.7147 17.5 15.4939C16.5494 16.7147 15.0656 17.5 13.3984 17.5C11.7313 17.5 10.2475 16.7147 9.29688 15.4939C8.34624 16.7147 6.86248 17.5 5.19531 17.5C2.32602 17.5 0 15.174 0 12.3047V11.7467C0 10.9634 0.280193 10.206 0.789939 9.6113L6.49843 2.95139ZM10.3906 12.3047C10.3906 13.9659 11.7373 15.3125 13.3984 15.3125C15.0596 15.3125 16.4062 13.9659 16.4062 12.3047C16.4062 11.7006 16.8959 11.2109 17.5 11.2109C18.1041 11.2109 18.5938 11.7006 18.5938 12.3047C18.5938 13.9659 19.9404 15.3125 21.6016 15.3125C23.2627 15.3125 24.6094 13.9659 24.6094 12.3047C24.6094 11.7006 25.0991 11.2109 25.7031 11.2109C26.3072 11.2109 26.7969 11.7006 26.7969 12.3047C26.7969 13.9659 28.1435 15.3125 29.8047 15.3125C31.4659 15.3125 32.8125 13.9659 32.8125 12.3047V11.7467C32.8125 11.4856 32.7191 11.2331 32.5492 11.0349L26.8407 4.375H8.1593L2.45081 11.0349C2.2809 11.2331 2.1875 11.4856 2.1875 11.7467V12.3047C2.1875 13.9659 3.53414 15.3125 5.19531 15.3125C6.85648 15.3125 8.20312 13.9659 8.20312 12.3047C8.20312 11.7006 8.69281 11.2109 9.29688 11.2109C9.90094 11.2109 10.3906 11.7006 10.3906 12.3047ZM3.28125 18.5938C3.88531 18.5938 4.375 19.0834 4.375 19.6875V32.8125H6.5625V21.875C6.5625 20.6669 7.54188 19.6875 8.75 19.6875H15.3125C16.5206 19.6875 17.5 20.6669 17.5 21.875V32.8125H30.625V19.6875C30.625 19.0834 31.1147 18.5938 31.7188 18.5938C32.3228 18.5938 32.8125 19.0834 32.8125 19.6875V32.8125H33.9062C34.5103 32.8125 35 33.3022 35 33.9062C35 34.5103 34.5103 35 33.9062 35H1.09375C0.489689 35 0 34.5103 0 33.9062C0 33.3022 0.489689 32.8125 1.09375 32.8125H2.1875V19.6875C2.1875 19.0834 2.67719 18.5938 3.28125 18.5938ZM8.75 32.8125H15.3125V21.875H8.75V32.8125ZM19.6875 21.875C19.6875 20.6669 20.6669 19.6875 21.875 19.6875H26.25C27.4581 19.6875 28.4375 20.6669 28.4375 21.875V28.4375C28.4375 29.6456 27.4581 30.625 26.25 30.625H21.875C20.6669 30.625 19.6875 29.6456 19.6875 28.4375V21.875ZM26.25 21.875H21.875V28.4375H26.25V21.875Z" fill="black"/>
</svg>
