<svg width="25" height="26" viewBox="0 0 25 26" fill="none" xmlns="http://www.w3.org/2000/svg">
<path d="M8.9957 2.17383C9.36568 2.39582 9.48566 2.87572 9.26367 3.2457L5.28609 9.875H19.7139L15.7363 3.2457C15.5143 2.87572 15.6343 2.39582 16.0043 2.17383C16.3743 1.95184 16.8542 2.07182 17.0762 2.4418L21.5361 9.875H23.4375C24.3004 9.875 25 10.5746 25 11.4375V13C25 13.8629 24.3004 14.5625 23.4375 14.5625V21.5941C23.4375 23.7516 21.6885 25.5 19.5312 25.5H5.46875C3.31151 25.5 1.5625 23.7516 1.5625 21.5941V14.5625C0.699555 14.5625 0 13.8629 0 13V11.4375C0 10.5746 0.699555 9.875 1.5625 9.875H3.46391L7.92383 2.4418C8.14582 2.07182 8.62572 1.95184 8.9957 2.17383ZM3.125 14.5625V21.5941C3.125 22.8884 4.17421 23.9375 5.46875 23.9375H19.5312C20.8258 23.9375 21.875 22.8884 21.875 21.5941V14.5625H3.125ZM1.5625 11.4375V13H23.4375V11.4375H1.5625ZM6.25 16.125C6.68147 16.125 7.03125 16.4748 7.03125 16.9062V21.5937C7.03125 22.0252 6.68147 22.375 6.25 22.375C5.81853 22.375 5.46875 22.0252 5.46875 21.5937V16.9062C5.46875 16.4748 5.81853 16.125 6.25 16.125ZM9.375 16.125C9.80647 16.125 10.1562 16.4748 10.1562 16.9062V21.5937C10.1562 22.0252 9.80647 22.375 9.375 22.375C8.94353 22.375 8.59375 22.0252 8.59375 21.5937V16.9062C8.59375 16.4748 8.94353 16.125 9.375 16.125ZM12.5 16.125C12.9315 16.125 13.2812 16.4748 13.2812 16.9062V21.5937C13.2812 22.0252 12.9315 22.375 12.5 22.375C12.0685 22.375 11.7188 22.0252 11.7188 21.5937V16.9062C11.7188 16.4748 12.0685 16.125 12.5 16.125ZM15.625 16.125C16.0565 16.125 16.4062 16.4748 16.4062 16.9062V21.5937C16.4062 22.0252 16.0565 22.375 15.625 22.375C15.1935 22.375 14.8438 22.0252 14.8438 21.5937V16.9062C14.8438 16.4748 15.1935 16.125 15.625 16.125ZM18.75 16.125C19.1815 16.125 19.5312 16.4748 19.5312 16.9062V21.5937C19.5312 22.0252 19.1815 22.375 18.75 22.375C18.3185 22.375 17.9688 22.0252 17.9688 21.5937V16.9062C17.9688 16.4748 18.3185 16.125 18.75 16.125Z" fill="black"/>
</svg>
