<svg width="25" height="26" viewBox="0 0 25 26" fill="none" xmlns="http://www.w3.org/2000/svg">
<path d="M12.5 13C15.9518 13 18.75 10.2018 18.75 6.75C18.75 3.29822 15.9518 0.5 12.5 0.5C9.04822 0.5 6.25 3.29822 6.25 6.75C6.25 10.2018 9.04822 13 12.5 13ZM16.6667 6.75C16.6667 9.05119 14.8012 10.9167 12.5 10.9167C10.1988 10.9167 8.33333 9.05119 8.33333 6.75C8.33333 4.44881 10.1988 2.58333 12.5 2.58333C14.8012 2.58333 16.6667 4.44881 16.6667 6.75Z" fill="black"/>
<path d="M25 23.4167C25 25.5 22.9167 25.5 22.9167 25.5H2.08333C2.08333 25.5 0 25.5 0 23.4167C0 21.3333 2.08333 15.0833 12.5 15.0833C22.9167 15.0833 25 21.3333 25 23.4167ZM22.9166 23.4094C22.9137 22.8953 22.5963 21.3551 21.1831 19.9419C19.8242 18.583 17.269 17.1667 12.5 17.1667C7.731 17.1667 5.17574 18.583 3.81687 19.9419C2.40366 21.3551 2.0863 22.8953 2.08333 23.4094H22.9166Z" fill="black"/>
</svg>
