<svg width="189" height="60" viewBox="0 0 189 60" fill="none" xmlns="http://www.w3.org/2000/svg">
<path d="M6.99843 2.95139C7.41402 2.46654 8.02072 2.1875 8.6593 2.1875H27.3407C27.9793 2.1875 28.586 2.46654 29.0016 2.95139L34.7101 9.6113C35.2198 10.206 35.5 10.9634 35.5 11.7467V12.3047C35.5 15.174 33.174 17.5 30.3047 17.5C28.6375 17.5 27.1538 16.7147 26.2031 15.4939C25.2525 16.7147 23.7687 17.5 22.1016 17.5C20.4344 17.5 18.9506 16.7147 18 15.4939C17.0494 16.7147 15.5656 17.5 13.8984 17.5C12.2313 17.5 10.7475 16.7147 9.79688 15.4939C8.84624 16.7147 7.36248 17.5 5.69531 17.5C2.82602 17.5 0.5 15.174 0.5 12.3047V11.7467C0.5 10.9634 0.780193 10.206 1.28994 9.6113L6.99843 2.95139ZM10.8906 12.3047C10.8906 13.9659 12.2373 15.3125 13.8984 15.3125C15.5596 15.3125 16.9062 13.9659 16.9062 12.3047C16.9062 11.7006 17.3959 11.2109 18 11.2109C18.6041 11.2109 19.0938 11.7006 19.0938 12.3047C19.0938 13.9659 20.4404 15.3125 22.1016 15.3125C23.7627 15.3125 25.1094 13.9659 25.1094 12.3047C25.1094 11.7006 25.5991 11.2109 26.2031 11.2109C26.8072 11.2109 27.2969 11.7006 27.2969 12.3047C27.2969 13.9659 28.6435 15.3125 30.3047 15.3125C31.9659 15.3125 33.3125 13.9659 33.3125 12.3047V11.7467C33.3125 11.4856 33.2191 11.2331 33.0492 11.0349L27.3407 4.375H8.6593L2.95081 11.0349C2.7809 11.2331 2.6875 11.4856 2.6875 11.7467V12.3047C2.6875 13.9659 4.03414 15.3125 5.69531 15.3125C7.35648 15.3125 8.70312 13.9659 8.70312 12.3047C8.70312 11.7006 9.19281 11.2109 9.79688 11.2109C10.4009 11.2109 10.8906 11.7006 10.8906 12.3047ZM3.78125 18.5938C4.38531 18.5938 4.875 19.0834 4.875 19.6875V32.8125H7.0625V21.875C7.0625 20.6669 8.04188 19.6875 9.25 19.6875H15.8125C17.0206 19.6875 18 20.6669 18 21.875V32.8125H31.125V19.6875C31.125 19.0834 31.6147 18.5938 32.2188 18.5938C32.8228 18.5938 33.3125 19.0834 33.3125 19.6875V32.8125H34.4062C35.0103 32.8125 35.5 33.3022 35.5 33.9062C35.5 34.5103 35.0103 35 34.4062 35H1.59375C0.989689 35 0.5 34.5103 0.5 33.9062C0.5 33.3022 0.989689 32.8125 1.59375 32.8125H2.6875V19.6875C2.6875 19.0834 3.17719 18.5938 3.78125 18.5938ZM9.25 32.8125H15.8125V21.875H9.25V32.8125ZM20.1875 21.875C20.1875 20.6669 21.1669 19.6875 22.375 19.6875H26.75C27.9581 19.6875 28.9375 20.6669 28.9375 21.875V28.4375C28.9375 29.6456 27.9581 30.625 26.75 30.625H22.375C21.1669 30.625 20.1875 29.6456 20.1875 28.4375V21.875ZM26.75 21.875H22.375V28.4375H26.75V21.875Z" fill="black"/>
<path d="M42.7017 13.8182H45.3295L51.5085 28.9105H51.7216L57.9006 13.8182H60.5284V32H58.4688V18.1861H58.2912L52.6094 32H50.6207L44.9389 18.1861H44.7614V32H42.7017V13.8182ZM66.0083 37.1136C65.6531 37.1136 65.3365 37.084 65.0583 37.0249C64.7802 36.9716 64.5878 36.9183 64.4813 36.8651L65.0139 35.0185C65.5229 35.1487 65.9727 35.196 66.3634 35.1605C66.754 35.125 67.1002 34.9504 67.4021 34.6367C67.7098 34.329 67.991 33.8288 68.2455 33.1364L68.6361 32.071L63.5935 18.3636H65.8662L69.6304 29.2301H69.7725L73.5367 18.3636H75.8094L70.021 33.9886C69.7606 34.6929 69.4381 35.2759 69.0534 35.7376C68.6686 36.2051 68.2218 36.5514 67.7128 36.7763C67.2097 37.0012 66.6415 37.1136 66.0083 37.1136ZM88.8021 18.3636C88.6956 17.464 88.2635 16.7656 87.5059 16.2685C86.7484 15.7713 85.8192 15.5227 84.7183 15.5227C83.9134 15.5227 83.2091 15.6529 82.6054 15.9134C82.0076 16.1738 81.54 16.5318 81.2027 16.9876C80.8712 17.4433 80.7055 17.9612 80.7055 18.5412C80.7055 19.0265 80.8209 19.4438 81.0518 19.793C81.2885 20.1362 81.5903 20.4233 81.9573 20.6541C82.3242 20.879 82.709 21.0655 83.1114 21.2134C83.5139 21.3555 83.8838 21.4709 84.2211 21.5597L86.0677 22.0568C86.5412 22.1811 87.068 22.3527 87.648 22.5717C88.2339 22.7907 88.7932 23.0896 89.3259 23.4684C89.8645 23.8413 90.3084 24.3207 90.6576 24.9066C91.0068 25.4925 91.1814 26.2116 91.1814 27.0639C91.1814 28.0464 90.9239 28.9342 90.409 29.7273C89.9 30.5204 89.1543 31.1507 88.1718 31.6183C87.1952 32.0858 86.0086 32.3196 84.6118 32.3196C83.3097 32.3196 82.1822 32.1095 81.2293 31.6893C80.2823 31.2691 79.5366 30.6831 78.9921 29.9315C78.4535 29.1798 78.1487 28.3068 78.0777 27.3125H80.3504C80.4096 27.9991 80.6404 28.5672 81.0429 29.017C81.4513 29.4609 81.9662 29.7924 82.5876 30.0114C83.215 30.2244 83.8897 30.331 84.6118 30.331C85.4522 30.331 86.2068 30.1948 86.8756 29.9226C87.5444 29.6444 88.0741 29.2597 88.4648 28.7685C88.8554 28.2713 89.0507 27.6913 89.0507 27.0284C89.0507 26.4247 88.882 25.9335 88.5447 25.5547C88.2073 25.1759 87.7634 24.8681 87.213 24.6314C86.6626 24.3946 86.0677 24.1875 85.4285 24.0099L83.1913 23.3707C81.7709 22.9624 80.6463 22.3794 79.8177 21.6218C78.9891 20.8642 78.5748 19.8729 78.5748 18.6477C78.5748 17.6297 78.8501 16.742 79.4005 15.9844C79.9568 15.2209 80.7026 14.629 81.6377 14.2088C82.5787 13.7827 83.6293 13.5696 84.7893 13.5696C85.9612 13.5696 87.0029 13.7797 87.9143 14.1999C88.8258 14.6142 89.5479 15.1824 90.0805 15.9045C90.6191 16.6265 90.9032 17.4463 90.9328 18.3636H88.8021ZM96.6124 23.7969V32H94.5172V13.8182H96.6124V20.4943H96.79C97.1096 19.79 97.589 19.2307 98.2282 18.8164C98.8733 18.3962 99.7315 18.1861 100.803 18.1861C101.732 18.1861 102.546 18.3725 103.244 18.7454C103.943 19.1123 104.484 19.6776 104.869 20.4411C105.259 21.1986 105.455 22.1634 105.455 23.3352V32H103.36V23.4773C103.36 22.3942 103.078 21.5567 102.516 20.9648C101.96 20.3671 101.187 20.0682 100.199 20.0682C99.5125 20.0682 98.897 20.2132 98.3525 20.5032C97.8139 20.7932 97.3877 21.2164 97.074 21.7727C96.7663 22.3291 96.6124 23.0038 96.6124 23.7969ZM114.828 32.2841C113.596 32.2841 112.516 31.9911 111.587 31.4052C110.664 30.8192 109.942 29.9995 109.421 28.946C108.906 27.8925 108.649 26.6615 108.649 25.2528C108.649 23.8324 108.906 22.5924 109.421 21.533C109.942 20.4736 110.664 19.6509 111.587 19.065C112.516 18.479 113.596 18.1861 114.828 18.1861C116.059 18.1861 117.136 18.479 118.059 19.065C118.988 19.6509 119.71 20.4736 120.225 21.533C120.746 22.5924 121.006 23.8324 121.006 25.2528C121.006 26.6615 120.746 27.8925 120.225 28.946C119.71 29.9995 118.988 30.8192 118.059 31.4052C117.136 31.9911 116.059 32.2841 114.828 32.2841ZM114.828 30.402C115.763 30.402 116.532 30.1623 117.136 29.6829C117.739 29.2035 118.186 28.5732 118.476 27.7919C118.766 27.0107 118.911 26.1643 118.911 25.2528C118.911 24.3414 118.766 23.4921 118.476 22.7049C118.186 21.9177 117.739 21.2815 117.136 20.7962C116.532 20.3108 115.763 20.0682 114.828 20.0682C113.892 20.0682 113.123 20.3108 112.519 20.7962C111.916 21.2815 111.469 21.9177 111.179 22.7049C110.889 23.4921 110.744 24.3414 110.744 25.2528C110.744 26.1643 110.889 27.0107 111.179 27.7919C111.469 28.5732 111.916 29.2035 112.519 29.6829C113.123 30.1623 113.892 30.402 114.828 30.402ZM124.205 37.1136V18.3636H126.229V20.5298H126.477C126.631 20.2931 126.844 19.9912 127.117 19.6243C127.395 19.2514 127.791 18.92 128.306 18.63C128.827 18.334 129.531 18.1861 130.419 18.1861C131.567 18.1861 132.579 18.4731 133.455 19.0472C134.331 19.6213 135.015 20.4351 135.506 21.4886C135.997 22.5421 136.243 23.785 136.243 25.2173C136.243 26.6615 135.997 27.9132 135.506 28.9727C135.015 30.0262 134.334 30.8429 133.464 31.4229C132.594 31.997 131.591 32.2841 130.455 32.2841C129.579 32.2841 128.877 32.1391 128.351 31.8491C127.824 31.5531 127.419 31.2187 127.134 30.8459C126.85 30.4671 126.631 30.1534 126.477 29.9048H126.3V37.1136H124.205ZM126.264 25.1818C126.264 26.2116 126.415 27.1201 126.717 27.9073C127.019 28.6886 127.46 29.3011 128.04 29.745C128.62 30.183 129.33 30.402 130.171 30.402C131.047 30.402 131.778 30.1712 132.363 29.7095C132.955 29.242 133.399 28.6146 133.695 27.8274C133.997 27.0343 134.148 26.1525 134.148 25.1818C134.148 24.223 134 23.3589 133.704 22.5895C133.414 21.8142 132.973 21.2016 132.381 20.7518C131.795 20.296 131.058 20.0682 130.171 20.0682C129.318 20.0682 128.602 20.2842 128.022 20.7163C127.442 21.1424 127.004 21.7402 126.708 22.5096C126.412 23.2731 126.264 24.1638 126.264 25.1818Z" fill="black"/>
<path d="M11.0256 47.5455C11.0256 48.696 10.8178 49.6903 10.4023 50.5284C9.98686 51.3665 9.4169 52.0128 8.69247 52.4673C7.96804 52.9219 7.14063 53.1491 6.21023 53.1491C5.27983 53.1491 4.45241 52.9219 3.72798 52.4673C3.00355 52.0128 2.43359 51.3665 2.01811 50.5284C1.60263 49.6903 1.39489 48.696 1.39489 47.5455C1.39489 46.3949 1.60263 45.4006 2.01811 44.5625C2.43359 43.7244 3.00355 43.0781 3.72798 42.6236C4.45241 42.169 5.27983 41.9418 6.21023 41.9418C7.14063 41.9418 7.96804 42.169 8.69247 42.6236C9.4169 43.0781 9.98686 43.7244 10.4023 44.5625C10.8178 45.4006 11.0256 46.3949 11.0256 47.5455ZM9.74716 47.5455C9.74716 46.6009 9.58913 45.8036 9.27308 45.1538C8.96058 44.5039 8.53622 44.0121 8 43.6783C7.46733 43.3445 6.87074 43.1776 6.21023 43.1776C5.54972 43.1776 4.95135 43.3445 4.41513 43.6783C3.88246 44.0121 3.4581 44.5039 3.14205 45.1538C2.82955 45.8036 2.6733 46.6009 2.6733 47.5455C2.6733 48.4901 2.82955 49.2873 3.14205 49.9371C3.4581 50.587 3.88246 51.0788 4.41513 51.4126C4.95135 51.7464 5.54972 51.9134 6.21023 51.9134C6.87074 51.9134 7.46733 51.7464 8 51.4126C8.53622 51.0788 8.96058 50.587 9.27308 49.9371C9.58913 49.2873 9.74716 48.4901 9.74716 47.5455ZM21.8974 42.0909V53H20.619L14.6744 44.4347H14.5678V53H13.2468V42.0909H14.5252L20.4911 50.6776H20.5977V42.0909H21.8974ZM24.5407 53V42.0909H25.8618V51.8281H30.9328V53H24.5407ZM34.2993 42.0909V53H32.9782V42.0909H34.2993ZM45.5985 42.0909V53H44.3201L38.3755 44.4347H38.269V53H36.948V42.0909H38.2264L44.1923 50.6776H44.2988V42.0909H45.5985ZM48.2419 53V42.0909H54.8257V43.2628H49.5629V46.9489H54.4848V48.1207H49.5629V51.8281H54.911V53H48.2419ZM61.4255 53V42.0909H65.1116C65.9674 42.0909 66.667 42.2454 67.2103 42.5543C67.7572 42.8597 68.162 43.2734 68.4248 43.7955C68.6876 44.3175 68.819 44.8999 68.819 45.5426C68.819 46.1854 68.6876 46.7695 68.4248 47.2951C68.1656 47.8207 67.7643 48.2397 67.221 48.5522C66.6776 48.8612 65.9816 49.0156 65.1329 49.0156H62.4909V47.8438H65.0903C65.6762 47.8438 66.1468 47.7425 66.5019 47.5401C66.857 47.3377 67.1144 47.0643 67.2742 46.7198C67.4376 46.3718 67.5193 45.9794 67.5193 45.5426C67.5193 45.1058 67.4376 44.7152 67.2742 44.3707C67.1144 44.0263 66.8552 43.7564 66.4965 43.5611C66.1379 43.3622 65.662 43.2628 65.069 43.2628H62.7465V53H61.4255ZM70.947 53V42.0909H77.5308V43.2628H72.268V46.9489H77.1899V48.1207H72.268V51.8281H77.616V53H70.947ZM79.3153 43.2628V42.0909H87.4971V43.2628H84.0667V53H82.7457V43.2628H79.3153ZM93.7546 53V42.0909H100.296V43.2628H95.0756V46.9489H99.8058V48.1207H95.0756V53H93.7546ZM111.763 47.5455C111.763 48.696 111.555 49.6903 111.14 50.5284C110.724 51.3665 110.154 52.0128 109.43 52.4673C108.705 52.9219 107.878 53.1491 106.948 53.1491C106.017 53.1491 105.19 52.9219 104.465 52.4673C103.741 52.0128 103.171 51.3665 102.755 50.5284C102.34 49.6903 102.132 48.696 102.132 47.5455C102.132 46.3949 102.34 45.4006 102.755 44.5625C103.171 43.7244 103.741 43.0781 104.465 42.6236C105.19 42.169 106.017 41.9418 106.948 41.9418C107.878 41.9418 108.705 42.169 109.43 42.6236C110.154 43.0781 110.724 43.7244 111.14 44.5625C111.555 45.4006 111.763 46.3949 111.763 47.5455ZM110.484 47.5455C110.484 46.6009 110.326 45.8036 110.01 45.1538C109.698 44.5039 109.274 44.0121 108.737 43.6783C108.205 43.3445 107.608 43.1776 106.948 43.1776C106.287 43.1776 105.689 43.3445 105.152 43.6783C104.62 44.0121 104.195 44.5039 103.879 45.1538C103.567 45.8036 103.411 46.6009 103.411 47.5455C103.411 48.4901 103.567 49.2873 103.879 49.9371C104.195 50.587 104.62 51.0788 105.152 51.4126C105.689 51.7464 106.287 51.9134 106.948 51.9134C107.608 51.9134 108.205 51.7464 108.737 51.4126C109.274 51.0788 109.698 50.587 110.01 49.9371C110.326 49.2873 110.484 48.4901 110.484 47.5455ZM123.189 47.5455C123.189 48.696 122.981 49.6903 122.565 50.5284C122.15 51.3665 121.58 52.0128 120.856 52.4673C120.131 52.9219 119.304 53.1491 118.373 53.1491C117.443 53.1491 116.616 52.9219 115.891 52.4673C115.167 52.0128 114.597 51.3665 114.181 50.5284C113.766 49.6903 113.558 48.696 113.558 47.5455C113.558 46.3949 113.766 45.4006 114.181 44.5625C114.597 43.7244 115.167 43.0781 115.891 42.6236C116.616 42.169 117.443 41.9418 118.373 41.9418C119.304 41.9418 120.131 42.169 120.856 42.6236C121.58 43.0781 122.15 43.7244 122.565 44.5625C122.981 45.4006 123.189 46.3949 123.189 47.5455ZM121.91 47.5455C121.91 46.6009 121.752 45.8036 121.436 45.1538C121.124 44.5039 120.699 44.0121 120.163 43.6783C119.63 43.3445 119.034 43.1776 118.373 43.1776C117.713 43.1776 117.114 43.3445 116.578 43.6783C116.046 44.0121 115.621 44.5039 115.305 45.1538C114.993 45.8036 114.836 46.6009 114.836 47.5455C114.836 48.4901 114.993 49.2873 115.305 49.9371C115.621 50.587 116.046 51.0788 116.578 51.4126C117.114 51.7464 117.713 51.9134 118.373 51.9134C119.034 51.9134 119.63 51.7464 120.163 51.4126C120.699 51.0788 121.124 50.587 121.436 49.9371C121.752 49.2873 121.91 48.4901 121.91 47.5455ZM128.776 53H125.41V42.0909H128.926C129.984 42.0909 130.889 42.3093 131.642 42.7461C132.395 43.1793 132.972 43.8026 133.373 44.6158C133.775 45.4254 133.975 46.3949 133.975 47.5241C133.975 48.6605 133.773 49.6388 133.368 50.4592C132.963 51.2759 132.374 51.9045 131.6 52.3448C130.825 52.7816 129.884 53 128.776 53ZM126.731 51.8281H128.691C129.593 51.8281 130.341 51.6541 130.934 51.3061C131.527 50.9581 131.969 50.4627 132.26 49.82C132.551 49.1772 132.697 48.4119 132.697 47.5241C132.697 46.6435 132.553 45.8853 132.265 45.2496C131.978 44.6104 131.548 44.1204 130.976 43.7795C130.405 43.435 129.693 43.2628 128.84 43.2628H126.731V51.8281ZM146.376 44.8182C146.312 44.2784 146.053 43.8594 145.598 43.5611C145.144 43.2628 144.586 43.1136 143.926 43.1136C143.443 43.1136 143.02 43.1918 142.658 43.348C142.299 43.5043 142.019 43.7191 141.816 43.9925C141.617 44.266 141.518 44.5767 141.518 44.9247C141.518 45.2159 141.587 45.4663 141.726 45.6758C141.868 45.8817 142.049 46.054 142.269 46.1925C142.489 46.3274 142.72 46.4393 142.961 46.5281C143.203 46.6133 143.425 46.6825 143.627 46.7358L144.735 47.0341C145.019 47.1087 145.335 47.2116 145.683 47.343C146.035 47.4744 146.37 47.6538 146.69 47.881C147.013 48.1048 147.28 48.3924 147.489 48.744C147.699 49.0955 147.803 49.527 147.803 50.0384C147.803 50.6278 147.649 51.1605 147.34 51.6364C147.035 52.1122 146.587 52.4904 145.998 52.771C145.412 53.0515 144.7 53.1918 143.862 53.1918C143.08 53.1918 142.404 53.0657 141.832 52.8136C141.264 52.5614 140.816 52.2099 140.49 51.7589C140.167 51.3079 139.984 50.7841 139.941 50.1875H141.305C141.34 50.5994 141.479 50.9403 141.72 51.2102C141.965 51.4766 142.274 51.6754 142.647 51.8068C143.024 51.9347 143.428 51.9986 143.862 51.9986C144.366 51.9986 144.819 51.9169 145.22 51.7536C145.621 51.5866 145.939 51.3558 146.173 51.0611C146.408 50.7628 146.525 50.4148 146.525 50.017C146.525 49.6548 146.424 49.3601 146.221 49.1328C146.019 48.9055 145.753 48.7209 145.422 48.5788C145.092 48.4368 144.735 48.3125 144.352 48.206L143.009 47.8224C142.157 47.5774 141.482 47.2276 140.985 46.7731C140.488 46.3185 140.239 45.7237 140.239 44.9886C140.239 44.3778 140.405 43.8452 140.735 43.3906C141.069 42.9325 141.516 42.5774 142.077 42.3253C142.642 42.0696 143.272 41.9418 143.968 41.9418C144.671 41.9418 145.296 42.0678 145.843 42.32C146.39 42.5685 146.823 42.9094 147.143 43.3427C147.466 43.7759 147.636 44.2678 147.654 44.8182H146.376ZM149.379 43.2628V42.0909H157.561V43.2628H154.13V53H152.809V43.2628H149.379ZM168.35 47.5455C168.35 48.696 168.142 49.6903 167.727 50.5284C167.311 51.3665 166.741 52.0128 166.017 52.4673C165.292 52.9219 164.465 53.1491 163.534 53.1491C162.604 53.1491 161.777 52.9219 161.052 52.4673C160.328 52.0128 159.758 51.3665 159.342 50.5284C158.927 49.6903 158.719 48.696 158.719 47.5455C158.719 46.3949 158.927 45.4006 159.342 44.5625C159.758 43.7244 160.328 43.0781 161.052 42.6236C161.777 42.169 162.604 41.9418 163.534 41.9418C164.465 41.9418 165.292 42.169 166.017 42.6236C166.741 43.0781 167.311 43.7244 167.727 44.5625C168.142 45.4006 168.35 46.3949 168.35 47.5455ZM167.071 47.5455C167.071 46.6009 166.913 45.8036 166.597 45.1538C166.285 44.5039 165.86 44.0121 165.324 43.6783C164.792 43.3445 164.195 43.1776 163.534 43.1776C162.874 43.1776 162.276 43.3445 161.739 43.6783C161.207 44.0121 160.782 44.5039 160.466 45.1538C160.154 45.8036 159.998 46.6009 159.998 47.5455C159.998 48.4901 160.154 49.2873 160.466 49.9371C160.782 50.587 161.207 51.0788 161.739 51.4126C162.276 51.7464 162.874 51.9134 163.534 51.9134C164.195 51.9134 164.792 51.7464 165.324 51.4126C165.86 51.0788 166.285 50.587 166.597 49.9371C166.913 49.2873 167.071 48.4901 167.071 47.5455ZM170.571 53V42.0909H174.257C175.109 42.0909 175.809 42.2365 176.356 42.5277C176.903 42.8153 177.308 43.2113 177.57 43.7156C177.833 44.2198 177.964 44.7933 177.964 45.4361C177.964 46.0788 177.833 46.6488 177.57 47.146C177.308 47.6431 176.904 48.0337 176.361 48.3178C175.818 48.5984 175.124 48.7386 174.278 48.7386H171.295V47.5455H174.236C174.818 47.5455 175.287 47.4602 175.642 47.2898C176.001 47.1193 176.26 46.8778 176.42 46.5653C176.583 46.2493 176.665 45.8729 176.665 45.4361C176.665 44.9993 176.583 44.6175 176.42 44.2908C176.256 43.9641 175.995 43.712 175.637 43.5344C175.278 43.3533 174.804 43.2628 174.214 43.2628H171.892V53H170.571ZM175.706 48.0994L178.391 53H176.857L174.214 48.0994H175.706ZM180.166 53V42.0909H186.75V43.2628H181.487V46.9489H186.409V48.1207H181.487V51.8281H186.835V53H180.166Z" fill="black"/>
</svg>
